<?xml version="1.0" encoding="utf-8"?>
<!-- Generator: Adobe Illustrator 16.0.0, SVG Export Plug-In . SVG Version: 6.00 Build 0)  -->
<!DOCTYPE svg PUBLIC "-//W3C//DTD SVG 1.1//EN" "http://www.w3.org/Graphics/SVG/1.1/DTD/svg11.dtd">
<svg version="1.1" id="Layer_1" xmlns="http://www.w3.org/2000/svg" xmlns:xlink="http://www.w3.org/1999/xlink" x="0px" y="0px"
	 width="502px" height="340px" viewBox="0 0 502 340" enable-background="new 0 0 502 340" xml:space="preserve">
<g>
	<path fill="#3E8ECC" d="M-4.847-363.924c0,1.598-1.295,2.893-2.893,2.893h-72.634c-1.598,0-2.893-1.295-2.893-2.893v-25.73
		c0-1.598,1.295-2.893,2.893-2.893H-7.74c1.598,0,2.893,1.295,2.893,2.893V-363.924z"/>
	<text transform="matrix(1 0 0 1 -74.2368 -368.8232)" fill="#FFFFFF" font-family="'MyriadPro-Regular'" font-size="25.6047">React</text>
</g>
<g>
	<path fill="#3E8ECC" d="M122.812-348.167c0,1.598-1.462,2.893-3.266,2.893H37.552c-1.804,0-3.266-1.295-3.266-2.893v-25.729
		c0-1.598,1.462-2.894,3.266-2.894h81.994c1.804,0,3.266,1.295,3.266,2.894V-348.167z"/>
	<text transform="matrix(1 0 0 1 40.645 -351.7725)" fill="#FFFFFF" font-family="'MyriadPro-Regular'" font-size="25.6047">MySQL</text>
</g>
<path fill="#A5A4A4" d="M63.349,314.151c0,0.127-0.668,0.229-1.492,0.229H24.392c-0.824,0-1.492-0.103-1.492-0.229v-2.048
	c0-0.128,0.668-0.23,1.492-0.23h37.465c0.824,0,1.492,0.103,1.492,0.23V314.151z"/>
<path fill="#A5A4A4" d="M473.01,314.151c0,0.127-0.669,0.229-1.494,0.229h-37.465c-0.823,0-1.491-0.103-1.491-0.229v-2.048
	c0-0.128,0.668-0.23,1.491-0.23h37.465c0.825,0,1.494,0.103,1.494,0.23V314.151z"/>
<g>
	<g>
		<defs>
			<path id="SVGID_1_" d="M53.07,8.284c-5.493,0-9.946,4.453-9.946,9.945v279.39h409.659V18.229c0-5.493-4.452-9.945-9.944-9.945
				H53.07z"/>
		</defs>
		<clipPath id="SVGID_2_">
			<use xlink:href="#SVGID_1_"  overflow="visible"/>
		</clipPath>
	</g>
	<g>
		<defs>
			<path id="SVGID_3_" d="M53.07,8.284c-5.493,0-9.946,4.453-9.946,9.945v279.39h409.659V18.229c0-5.493-4.452-9.945-9.944-9.945
				H53.07z"/>
		</defs>
		<linearGradient id="SVGID_4_" gradientUnits="userSpaceOnUse" x1="43.124" y1="152.9512" x2="452.7832" y2="152.9512">
			<stop  offset="0" style="stop-color:#58595B"/>
			<stop  offset="0.1755" style="stop-color:#BCBEC0"/>
			<stop  offset="0.5176" style="stop-color:#939598"/>
			<stop  offset="0.7378" style="stop-color:#D1D3D4"/>
			<stop  offset="1" style="stop-color:#808285"/>
		</linearGradient>
		<use xlink:href="#SVGID_3_"  overflow="visible" fill="url(#SVGID_4_)"/>
		<clipPath id="SVGID_5_">
			<use xlink:href="#SVGID_3_"  overflow="visible"/>
		</clipPath>
		
			<linearGradient id="SVGID_6_" gradientUnits="userSpaceOnUse" x1="-899.7158" y1="953.1875" x2="-898.9633" y2="953.1875" gradientTransform="matrix(-335.7185 514.5592 514.5592 335.7185 -792149.6875 142915.3594)">
			<stop  offset="0" style="stop-color:#58595B"/>
			<stop  offset="0.1755" style="stop-color:#BCBEC0"/>
			<stop  offset="0.5176" style="stop-color:#939598"/>
			<stop  offset="0.7378" style="stop-color:#D1D3D4"/>
			<stop  offset="1" style="stop-color:#808285"/>
		</linearGradient>
		<polygon clip-path="url(#SVGID_5_)" fill="url(#SVGID_6_)" points="585.193,94.673 330.469,485.094 -89.286,211.23 
			165.44,-179.191 		"/>
	</g>
	<g>
		<defs>
			<path id="SVGID_7_" d="M53.07,8.284c-5.493,0-9.946,4.453-9.946,9.945v279.39h409.659V18.229c0-5.493-4.452-9.945-9.944-9.945
				H53.07z"/>
		</defs>
		<clipPath id="SVGID_8_">
			<use xlink:href="#SVGID_7_"  overflow="visible"/>
		</clipPath>
	</g>
</g>
<rect x="52.315" y="18.229" fill="#070808" width="389.813" height="279.39"/>
<g>
	<g>
		<defs>
			<path id="SVGID_9_" d="M7.715,290.094v18.146c0,2.735,4.454,4.952,9.945,4.952h460.587c5.492,0,9.944-2.217,9.944-4.952v-18.146
				H7.715z"/>
		</defs>
		<clipPath id="SVGID_10_">
			<use xlink:href="#SVGID_9_"  overflow="visible"/>
		</clipPath>
	</g>
	<g>
		<defs>
			<path id="SVGID_11_" d="M7.715,290.094v18.146c0,2.735,4.454,4.952,9.945,4.952h460.587c5.492,0,9.944-2.217,9.944-4.952v-18.146
				H7.715z"/>
		</defs>
		<linearGradient id="SVGID_12_" gradientUnits="userSpaceOnUse" x1="7.7153" y1="301.6426" x2="488.1924" y2="301.6426">
			<stop  offset="0" style="stop-color:#58595B"/>
			<stop  offset="0.1755" style="stop-color:#BCBEC0"/>
			<stop  offset="0.5176" style="stop-color:#939598"/>
			<stop  offset="0.7378" style="stop-color:#D1D3D4"/>
			<stop  offset="1" style="stop-color:#808285"/>
		</linearGradient>
		<use xlink:href="#SVGID_11_"  overflow="visible" fill="url(#SVGID_12_)"/>
		<clipPath id="SVGID_13_">
			<use xlink:href="#SVGID_11_"  overflow="visible"/>
		</clipPath>
		<linearGradient id="SVGID_14_" gradientUnits="userSpaceOnUse" x1="-124.6968" y1="301.6426" x2="620.6045" y2="301.6426">
			<stop  offset="0" style="stop-color:#58595B"/>
			<stop  offset="0.1755" style="stop-color:#BCBEC0"/>
			<stop  offset="0.5176" style="stop-color:#939598"/>
			<stop  offset="0.7378" style="stop-color:#D1D3D4"/>
			<stop  offset="1" style="stop-color:#808285"/>
		</linearGradient>
		<polygon clip-path="url(#SVGID_13_)" fill="url(#SVGID_14_)" points="620.604,306.295 344.732,272.54 -124.697,296.99 
			151.176,330.745 		"/>
	</g>
	<g>
		<defs>
			<path id="SVGID_15_" d="M7.715,290.094v18.146c0,2.735,4.454,4.952,9.945,4.952h460.587c5.492,0,9.944-2.217,9.944-4.952v-18.146
				H7.715z"/>
		</defs>
		<clipPath id="SVGID_16_">
			<use xlink:href="#SVGID_15_"  overflow="visible"/>
		</clipPath>
	</g>
</g>
<g>
	
		<image overflow="visible" opacity="0.3" width="3231" height="368" xlink:href="6ED9F790.png"  transform="matrix(0.24 0 0 0.24 -139.6968 267.0449)">
	</image>
	<g>
		<g>
			<defs>
				<path id="SVGID_17_" d="M7.715,291.599v18.146c0,2.735,4.454,4.952,9.945,4.952h460.587c5.492,0,9.944-2.217,9.944-4.952
					v-18.146H7.715z"/>
			</defs>
			<clipPath id="SVGID_18_">
				<use xlink:href="#SVGID_17_"  overflow="visible"/>
			</clipPath>
		</g>
		<g>
			<defs>
				<path id="SVGID_19_" d="M7.715,291.599v18.146c0,2.735,4.454,4.952,9.945,4.952h460.587c5.492,0,9.944-2.217,9.944-4.952
					v-18.146H7.715z"/>
			</defs>
			<use xlink:href="#SVGID_19_"  overflow="visible" fill="#7D7D7D"/>
			<clipPath id="SVGID_20_">
				<use xlink:href="#SVGID_19_"  overflow="visible"/>
			</clipPath>
			<polygon clip-path="url(#SVGID_20_)" fill="#7D7D7D" points="620.604,307.8 344.732,274.045 -124.697,298.496 151.176,332.25 			
				"/>
		</g>
		<g>
			<defs>
				<path id="SVGID_21_" d="M7.715,291.599v18.146c0,2.735,4.454,4.952,9.945,4.952h460.587c5.492,0,9.944-2.217,9.944-4.952
					v-18.146H7.715z"/>
			</defs>
			<clipPath id="SVGID_22_">
				<use xlink:href="#SVGID_21_"  overflow="visible"/>
			</clipPath>
		</g>
	</g>
</g>
<g>
	
		<image overflow="visible" opacity="0.3" width="3231" height="368" xlink:href="6ED9F791.png"  transform="matrix(0.24 0 0 0.24 -139.6968 265.54)">
	</image>
	<g>
		<g>
			<defs>
				<path id="SVGID_23_" d="M7.715,290.094v18.146c0,2.735,4.454,4.952,9.945,4.952h460.587c5.492,0,9.944-2.217,9.944-4.952
					v-18.146H7.715z"/>
			</defs>
			<clipPath id="SVGID_24_">
				<use xlink:href="#SVGID_23_"  overflow="visible"/>
			</clipPath>
		</g>
		<g>
			<defs>
				<path id="SVGID_25_" d="M7.715,290.094v18.146c0,2.735,4.454,4.952,9.945,4.952h460.587c5.492,0,9.944-2.217,9.944-4.952
					v-18.146H7.715z"/>
			</defs>
			<linearGradient id="SVGID_26_" gradientUnits="userSpaceOnUse" x1="7.7153" y1="301.6426" x2="488.1924" y2="301.6426">
				<stop  offset="0" style="stop-color:#58595B"/>
				<stop  offset="0.1755" style="stop-color:#BCBEC0"/>
				<stop  offset="0.5176" style="stop-color:#939598"/>
				<stop  offset="0.7378" style="stop-color:#D1D3D4"/>
				<stop  offset="1" style="stop-color:#808285"/>
			</linearGradient>
			<use xlink:href="#SVGID_25_"  overflow="visible" fill="url(#SVGID_26_)"/>
			<clipPath id="SVGID_27_">
				<use xlink:href="#SVGID_25_"  overflow="visible"/>
			</clipPath>
			<linearGradient id="SVGID_28_" gradientUnits="userSpaceOnUse" x1="-124.6968" y1="301.6426" x2="620.6045" y2="301.6426">
				<stop  offset="0" style="stop-color:#58595B"/>
				<stop  offset="0.1755" style="stop-color:#BCBEC0"/>
				<stop  offset="0.5176" style="stop-color:#939598"/>
				<stop  offset="0.7378" style="stop-color:#D1D3D4"/>
				<stop  offset="1" style="stop-color:#808285"/>
			</linearGradient>
			<polygon clip-path="url(#SVGID_27_)" fill="url(#SVGID_28_)" points="620.604,306.295 344.732,272.54 -124.697,296.99 
				151.176,330.745 			"/>
		</g>
		<g>
			<defs>
				<path id="SVGID_29_" d="M7.715,290.094v18.146c0,2.735,4.454,4.952,9.945,4.952h460.587c5.492,0,9.944-2.217,9.944-4.952
					v-18.146H7.715z"/>
			</defs>
			<clipPath id="SVGID_30_">
				<use xlink:href="#SVGID_29_"  overflow="visible"/>
			</clipPath>
		</g>
	</g>
</g>
<g>
	<defs>
		<path id="SVGID_31_" d="M148.897,297.619v4.793c0,0.723,1.836,1.308,4.101,1.308H342.91c2.265,0,4.101-0.585,4.101-1.308v-4.793
			H148.897z"/>
	</defs>
	<linearGradient id="SVGID_32_" gradientUnits="userSpaceOnUse" x1="148.8975" y1="300.6699" x2="347.0107" y2="300.6699">
		<stop  offset="0" style="stop-color:#D9D9D9"/>
		<stop  offset="0.4796" style="stop-color:#919395"/>
		<stop  offset="1" style="stop-color:#2A2A2A"/>
	</linearGradient>
	<use xlink:href="#SVGID_31_"  overflow="visible" fill="url(#SVGID_32_)"/>
	<clipPath id="SVGID_33_">
		<use xlink:href="#SVGID_31_"  overflow="visible"/>
	</clipPath>
	
		<linearGradient id="SVGID_34_" gradientUnits="userSpaceOnUse" x1="-894.7642" y1="955.4766" x2="-894.1108" y2="955.4766" gradientTransform="matrix(-163.3367 -40.1385 250.3479 -26.1879 -385075.3438 -10585.4258)">
		<stop  offset="0" style="stop-color:#D9D9D9"/>
		<stop  offset="0.4796" style="stop-color:#919395"/>
		<stop  offset="1" style="stop-color:#2A2A2A"/>
	</linearGradient>
	<polygon clip-path="url(#SVGID_33_)" fill="url(#SVGID_34_)" points="401.609,301.898 287.859,292.982 94.298,299.44 
		208.05,308.356 	"/>
</g>
<rect x="65.669" y="92.857" fill="#F9EEDA" width="249.667" height="9.505"/>
<rect x="65.669" y="148.301" fill="#F9EEDA" width="189.682" height="9.505"/>
<rect x="65.669" y="164.143" fill="#F9EEDA" width="325.863" height="9.505"/>
<rect x="65.669" y="179.983" fill="#F9EEDA" width="295.061" height="9.505"/>
<rect x="65.669" y="132.46" fill="#DCEED8" width="21.075" height="9.505"/>
<rect x="65.669" y="195.824" fill="#DCEED8" width="21.075" height="9.506"/>
<rect x="65.669" y="251.269" fill="#DCEED8" width="21.075" height="9.505"/>
<rect x="65.669" y="45.334" fill="#E8E8E8" width="249.667" height="9.504"/>
<rect x="65.669" y="227.508" fill="#E8E8E8" width="124.833" height="9.504"/>
<rect x="65.669" y="61.175" fill="#DCEEDD" width="97.428" height="9.505"/>
<rect x="65.669" y="77.016" fill="#DCEEDD" width="97.428" height="9.505"/>
<circle fill="#78C14F" cx="26.849" cy="301.076" r="3.763"/>
<g>
	<path fill="#5B5C5C" d="M471.588,298.075c0.472,0.629,0.762,1.401,0.762,2.248c0,2.078-1.685,3.763-3.763,3.763
		c-0.847,0-1.62-0.289-2.247-0.762c0.686,0.915,1.768,1.515,2.999,1.515c2.079,0,3.763-1.685,3.763-3.763
		C473.102,299.845,472.502,298.762,471.588,298.075z"/>
	<path fill="#5B5C5C" d="M472.35,300.323c0-0.847-0.29-1.619-0.762-2.248c-0.629-0.473-1.402-0.762-2.249-0.762
		c-2.078,0-3.763,1.685-3.763,3.763c0,0.847,0.29,1.619,0.764,2.248c0.627,0.473,1.4,0.762,2.247,0.762
		C470.665,304.086,472.35,302.401,472.35,300.323z"/>
	<path fill="#3D3D3D" d="M470.092,298.065c0.847,0,1.62,0.29,2.249,0.763c-0.687-0.915-1.77-1.515-3.002-1.515
		c-2.078,0-3.763,1.685-3.763,3.763c0,1.231,0.601,2.313,1.516,3c-0.474-0.628-0.763-1.401-0.763-2.248
		C466.329,299.75,468.014,298.065,470.092,298.065z"/>
</g>
<g>
	<path fill="#5B5C5C" d="M249.725,11.22c0.374,0.495,0.601,1.104,0.601,1.771c0,1.638-1.327,2.965-2.965,2.965
		c-0.667,0-1.276-0.228-1.772-0.601c0.541,0.721,1.394,1.194,2.364,1.194c1.638,0,2.965-1.327,2.965-2.965
		C250.918,12.614,250.447,11.761,249.725,11.22z"/>
	<path fill="#5B5C5C" d="M250.326,12.992c0-0.667-0.228-1.276-0.601-1.771c-0.495-0.372-1.104-0.601-1.771-0.601
		c-1.637,0-2.964,1.327-2.964,2.965c0,0.667,0.228,1.276,0.6,1.771c0.496,0.373,1.104,0.601,1.772,0.601
		C248.999,15.957,250.326,14.629,250.326,12.992z"/>
	<path fill="#3D3D3D" d="M248.547,11.213c0.667,0,1.277,0.228,1.772,0.601c-0.541-0.721-1.395-1.194-2.365-1.194
		c-1.637,0-2.964,1.327-2.964,2.965c0,0.97,0.472,1.823,1.193,2.364c-0.373-0.495-0.601-1.104-0.601-1.771
		C245.582,12.54,246.909,11.213,248.547,11.213z"/>
</g>
<linearGradient id="SVGID_35_" gradientUnits="userSpaceOnUse" x1="-552.9927" y1="-58.2612" x2="-465.2773" y2="-58.2612">
	<stop  offset="0" style="stop-color:#808285"/>
	<stop  offset="0.3488" style="stop-color:#939598"/>
	<stop  offset="1" style="stop-color:#58595B"/>
</linearGradient>
<circle fill="url(#SVGID_35_)" cx="-509.135" cy="-58.261" r="43.858"/>
<linearGradient id="SVGID_36_" gradientUnits="userSpaceOnUse" x1="-547.0659" y1="-58.2612" x2="-471.2041" y2="-58.2612">
	<stop  offset="0" style="stop-color:#58595B"/>
	<stop  offset="0.6512" style="stop-color:#939598"/>
	<stop  offset="1" style="stop-color:#808285"/>
</linearGradient>
<path fill="url(#SVGID_36_)" d="M-509.135-20.33c-20.915,0-37.931-17.016-37.931-37.931s17.016-37.931,37.931-37.931
	c20.916,0,37.931,17.016,37.931,37.931S-488.22-20.33-509.135-20.33z"/>
<linearGradient id="SVGID_37_" gradientUnits="userSpaceOnUse" x1="-543.7471" y1="-58.2612" x2="-474.5234" y2="-58.2612">
	<stop  offset="0" style="stop-color:#58595B"/>
	<stop  offset="0.1755" style="stop-color:#BCBEC0"/>
	<stop  offset="0.5176" style="stop-color:#939598"/>
	<stop  offset="0.7378" style="stop-color:#D1D3D4"/>
	<stop  offset="1" style="stop-color:#808285"/>
</linearGradient>
<path fill="url(#SVGID_37_)" d="M-509.135-23.649c-19.085,0-34.612-15.527-34.612-34.612s15.527-34.612,34.612-34.612
	c19.085,0,34.612,15.527,34.612,34.612S-490.05-23.649-509.135-23.649z"/>
<linearGradient id="SVGID_38_" gradientUnits="userSpaceOnUse" x1="-457.8433" y1="-58.2612" x2="-370.1284" y2="-58.2612">
	<stop  offset="0" style="stop-color:#808285"/>
	<stop  offset="0.3488" style="stop-color:#939598"/>
	<stop  offset="1" style="stop-color:#58595B"/>
</linearGradient>
<circle fill="url(#SVGID_38_)" cx="-413.986" cy="-58.261" r="43.857"/>
<linearGradient id="SVGID_39_" gradientUnits="userSpaceOnUse" x1="-451.9165" y1="-58.2612" x2="-376.0552" y2="-58.2612">
	<stop  offset="0" style="stop-color:#58595B"/>
	<stop  offset="0.6512" style="stop-color:#939598"/>
	<stop  offset="1" style="stop-color:#808285"/>
</linearGradient>
<path fill="url(#SVGID_39_)" d="M-413.986-20.33c-20.915,0-37.931-17.016-37.931-37.931s17.016-37.931,37.931-37.931
	s37.931,17.016,37.931,37.931S-393.071-20.33-413.986-20.33z"/>
<linearGradient id="SVGID_40_" gradientUnits="userSpaceOnUse" x1="-448.5977" y1="-58.2612" x2="-379.374" y2="-58.2612">
	<stop  offset="0" style="stop-color:#808285"/>
	<stop  offset="0.6289" style="stop-color:#FFFFFF"/>
	<stop  offset="1" style="stop-color:#808285"/>
</linearGradient>
<path fill="url(#SVGID_40_)" d="M-413.986-23.649c-19.085,0-34.612-15.527-34.612-34.612s15.527-34.612,34.612-34.612
	c19.085,0,34.612,15.527,34.612,34.612S-394.9-23.649-413.986-23.649z"/>
<linearGradient id="SVGID_41_" gradientUnits="userSpaceOnUse" x1="-362.6938" y1="-58.2612" x2="-274.979" y2="-58.2612">
	<stop  offset="0" style="stop-color:#808285"/>
	<stop  offset="0.3488" style="stop-color:#939598"/>
	<stop  offset="1" style="stop-color:#58595B"/>
</linearGradient>
<circle fill="url(#SVGID_41_)" cx="-318.836" cy="-58.261" r="43.857"/>
<linearGradient id="SVGID_42_" gradientUnits="userSpaceOnUse" x1="-356.7671" y1="-58.2612" x2="-280.9058" y2="-58.2612">
	<stop  offset="0" style="stop-color:#58595B"/>
	<stop  offset="0.6512" style="stop-color:#939598"/>
	<stop  offset="1" style="stop-color:#808285"/>
</linearGradient>
<path fill="url(#SVGID_42_)" d="M-318.836-20.33c-20.915,0-37.931-17.016-37.931-37.931s17.016-37.931,37.931-37.931
	s37.931,17.016,37.931,37.931S-297.921-20.33-318.836-20.33z"/>
<linearGradient id="SVGID_43_" gradientUnits="userSpaceOnUse" x1="-353.4482" y1="-58.2612" x2="-284.2246" y2="-58.2612">
	<stop  offset="0" style="stop-color:#F1F2F2"/>
	<stop  offset="0.2458" style="stop-color:#58595B"/>
	<stop  offset="0.4866" style="stop-color:#E1E2E3"/>
	<stop  offset="0.6289" style="stop-color:#808285"/>
	<stop  offset="1" style="stop-color:#F1F2F2"/>
</linearGradient>
<path fill="url(#SVGID_43_)" d="M-318.836-23.649c-19.085,0-34.612-15.527-34.612-34.612s15.526-34.612,34.612-34.612
	c19.085,0,34.612,15.527,34.612,34.612S-299.751-23.649-318.836-23.649z"/>
<linearGradient id="SVGID_44_" gradientUnits="userSpaceOnUse" x1="-267.5444" y1="-58.2612" x2="-179.8296" y2="-58.2612">
	<stop  offset="0" style="stop-color:#808285"/>
	<stop  offset="0.3488" style="stop-color:#939598"/>
	<stop  offset="1" style="stop-color:#58595B"/>
</linearGradient>
<circle fill="url(#SVGID_44_)" cx="-223.687" cy="-58.261" r="43.857"/>
<linearGradient id="SVGID_45_" gradientUnits="userSpaceOnUse" x1="-261.6182" y1="-58.2612" x2="-185.7563" y2="-58.2612">
	<stop  offset="0" style="stop-color:#58595B"/>
	<stop  offset="0.6512" style="stop-color:#939598"/>
	<stop  offset="1" style="stop-color:#808285"/>
</linearGradient>
<path fill="url(#SVGID_45_)" d="M-223.687-20.33c-20.916,0-37.931-17.016-37.931-37.931s17.016-37.931,37.931-37.931
	c20.915,0,37.931,17.016,37.931,37.931S-202.772-20.33-223.687-20.33z"/>
<linearGradient id="SVGID_46_" gradientUnits="userSpaceOnUse" x1="-258.2988" y1="-58.2612" x2="-189.0752" y2="-58.2612">
	<stop  offset="0" style="stop-color:#F1F2F2"/>
	<stop  offset="0.1262" style="stop-color:#D1D3D4"/>
	<stop  offset="0.4866" style="stop-color:#E1E2E3"/>
	<stop  offset="0.8059" style="stop-color:#BCBEC0"/>
	<stop  offset="1" style="stop-color:#F1F2F2"/>
</linearGradient>
<path fill="url(#SVGID_46_)" d="M-223.687-23.649c-19.085,0-34.612-15.527-34.612-34.612s15.526-34.612,34.612-34.612
	c19.085,0,34.612,15.527,34.612,34.612S-204.602-23.649-223.687-23.649z"/>
<linearGradient id="SVGID_47_" gradientUnits="userSpaceOnUse" x1="-552.9927" y1="49.6772" x2="-465.2773" y2="49.6772">
	<stop  offset="0" style="stop-color:#808285"/>
	<stop  offset="0.3488" style="stop-color:#939598"/>
	<stop  offset="1" style="stop-color:#58595B"/>
</linearGradient>
<circle fill="url(#SVGID_47_)" cx="-509.135" cy="49.677" r="43.858"/>
<linearGradient id="SVGID_48_" gradientUnits="userSpaceOnUse" x1="-547.0659" y1="49.6772" x2="-471.2041" y2="49.6772">
	<stop  offset="0" style="stop-color:#58595B"/>
	<stop  offset="0.6512" style="stop-color:#939598"/>
	<stop  offset="1" style="stop-color:#808285"/>
</linearGradient>
<path fill="url(#SVGID_48_)" d="M-509.135,87.608c-20.915,0-37.931-17.016-37.931-37.931s17.016-37.931,37.931-37.931
	c20.916,0,37.931,17.016,37.931,37.931S-488.22,87.608-509.135,87.608z"/>
<linearGradient id="SVGID_49_" gradientUnits="userSpaceOnUse" x1="-543.7471" y1="49.6772" x2="-474.5234" y2="49.6772">
	<stop  offset="0" style="stop-color:#949596"/>
	<stop  offset="0.0045" style="stop-color:#939496"/>
	<stop  offset="0.0561" style="stop-color:#8E8F90"/>
	<stop  offset="0.1087" style="stop-color:#828385"/>
	<stop  offset="0.1613" style="stop-color:#767778"/>
	<stop  offset="0.2138" style="stop-color:#6B6B6D"/>
	<stop  offset="0.2664" style="stop-color:#616163"/>
	<stop  offset="0.3191" style="stop-color:#5A5B5D"/>
	<stop  offset="0.3721" style="stop-color:#58595B"/>
	<stop  offset="0.4091" style="stop-color:#5B5B5D"/>
	<stop  offset="0.4537" style="stop-color:#636365"/>
	<stop  offset="0.5021" style="stop-color:#6E6F71"/>
	<stop  offset="0.5533" style="stop-color:#7B7C7D"/>
	<stop  offset="0.6066" style="stop-color:#89898B"/>
	<stop  offset="0.6609" style="stop-color:#929394"/>
	<stop  offset="0.6856" style="stop-color:#949596"/>
	<stop  offset="1" style="stop-color:#6C6D6F"/>
</linearGradient>
<path fill="url(#SVGID_49_)" d="M-509.135,84.289c-19.085,0-34.612-15.527-34.612-34.612c0-19.085,15.527-34.612,34.612-34.612
	c19.085,0,34.612,15.526,34.612,34.612C-474.523,68.762-490.05,84.289-509.135,84.289z"/>
<linearGradient id="SVGID_50_" gradientUnits="userSpaceOnUse" x1="-457.8433" y1="49.6772" x2="-370.1284" y2="49.6772">
	<stop  offset="0" style="stop-color:#808285"/>
	<stop  offset="0.3488" style="stop-color:#939598"/>
	<stop  offset="1" style="stop-color:#58595B"/>
</linearGradient>
<circle fill="url(#SVGID_50_)" cx="-413.986" cy="49.677" r="43.857"/>
<linearGradient id="SVGID_51_" gradientUnits="userSpaceOnUse" x1="-451.9165" y1="49.6772" x2="-376.0552" y2="49.6772">
	<stop  offset="0" style="stop-color:#58595B"/>
	<stop  offset="0.6512" style="stop-color:#939598"/>
	<stop  offset="1" style="stop-color:#808285"/>
</linearGradient>
<path fill="url(#SVGID_51_)" d="M-413.986,87.608c-20.915,0-37.931-17.016-37.931-37.931s17.016-37.931,37.931-37.931
	s37.931,17.016,37.931,37.931S-393.071,87.608-413.986,87.608z"/>
<linearGradient id="SVGID_52_" gradientUnits="userSpaceOnUse" x1="-448.5977" y1="49.6772" x2="-379.374" y2="49.6772">
	<stop  offset="0" style="stop-color:#6D6E71"/>
	<stop  offset="0.1252" style="stop-color:#808285"/>
	<stop  offset="0.1299" style="stop-color:#7E8083"/>
	<stop  offset="0.177" style="stop-color:#6E7072"/>
	<stop  offset="0.2225" style="stop-color:#646567"/>
	<stop  offset="0.2646" style="stop-color:#606163"/>
	<stop  offset="0.3167" style="stop-color:#646568"/>
	<stop  offset="0.3793" style="stop-color:#707174"/>
	<stop  offset="0.4414" style="stop-color:#808285"/>
	<stop  offset="0.5542" style="stop-color:#8B8D90"/>
	<stop  offset="0.6392" style="stop-color:#A7A9AC"/>
	<stop  offset="0.6594" style="stop-color:#909294"/>
	<stop  offset="0.6849" style="stop-color:#797A7D"/>
	<stop  offset="0.7097" style="stop-color:#67696B"/>
	<stop  offset="0.7333" style="stop-color:#5C5D5F"/>
	<stop  offset="0.7542" style="stop-color:#58595B"/>
	<stop  offset="0.7988" style="stop-color:#5B5C5E"/>
	<stop  offset="0.8387" style="stop-color:#646568"/>
	<stop  offset="0.8767" style="stop-color:#737477"/>
	<stop  offset="0.9135" style="stop-color:#86888A"/>
	<stop  offset="0.9493" style="stop-color:#9EA1A3"/>
	<stop  offset="0.9597" style="stop-color:#A7A9AC"/>
</linearGradient>
<path fill="url(#SVGID_52_)" d="M-413.986,84.289c-19.085,0-34.612-15.527-34.612-34.612c0-19.085,15.527-34.612,34.612-34.612
	c19.085,0,34.612,15.526,34.612,34.612C-379.374,68.762-394.9,84.289-413.986,84.289z"/>
<linearGradient id="SVGID_53_" gradientUnits="userSpaceOnUse" x1="-362.6938" y1="49.6772" x2="-274.979" y2="49.6772">
	<stop  offset="0" style="stop-color:#808285"/>
	<stop  offset="0.3488" style="stop-color:#939598"/>
	<stop  offset="1" style="stop-color:#58595B"/>
</linearGradient>
<circle fill="url(#SVGID_53_)" cx="-318.836" cy="49.677" r="43.857"/>
<linearGradient id="SVGID_54_" gradientUnits="userSpaceOnUse" x1="-356.7671" y1="49.6772" x2="-280.9058" y2="49.6772">
	<stop  offset="0" style="stop-color:#58595B"/>
	<stop  offset="0.6512" style="stop-color:#939598"/>
	<stop  offset="1" style="stop-color:#808285"/>
</linearGradient>
<path fill="url(#SVGID_54_)" d="M-318.836,87.608c-20.915,0-37.931-17.016-37.931-37.931s17.016-37.931,37.931-37.931
	s37.931,17.016,37.931,37.931S-297.921,87.608-318.836,87.608z"/>
<linearGradient id="SVGID_55_" gradientUnits="userSpaceOnUse" x1="-353.4482" y1="49.6772" x2="-284.2246" y2="49.6772">
	<stop  offset="0" style="stop-color:#F1F2F2"/>
	<stop  offset="0.1705" style="stop-color:#A7A9AC"/>
	<stop  offset="0.264" style="stop-color:#C9CACC"/>
	<stop  offset="0.3575" style="stop-color:#E4E5E6"/>
	<stop  offset="0.435" style="stop-color:#F6F6F6"/>
	<stop  offset="0.4866" style="stop-color:#FFFFFF"/>
	<stop  offset="0.5898" style="stop-color:#EAEBEC"/>
	<stop  offset="0.8025" style="stop-color:#BDBFC1"/>
	<stop  offset="0.8059" style="stop-color:#BCBEC0"/>
	<stop  offset="1" style="stop-color:#F1F2F2"/>
</linearGradient>
<path fill="url(#SVGID_55_)" d="M-318.836,84.289c-19.085,0-34.612-15.527-34.612-34.612c0-19.085,15.526-34.612,34.612-34.612
	c19.085,0,34.612,15.526,34.612,34.612C-284.225,68.762-299.751,84.289-318.836,84.289z"/>
<linearGradient id="SVGID_56_" gradientUnits="userSpaceOnUse" x1="-267.5444" y1="49.6772" x2="-179.8296" y2="49.6772">
	<stop  offset="0" style="stop-color:#808285"/>
	<stop  offset="0.3488" style="stop-color:#939598"/>
	<stop  offset="1" style="stop-color:#58595B"/>
</linearGradient>
<circle fill="url(#SVGID_56_)" cx="-223.687" cy="49.677" r="43.857"/>
<linearGradient id="SVGID_57_" gradientUnits="userSpaceOnUse" x1="-261.6182" y1="49.6772" x2="-185.7563" y2="49.6772">
	<stop  offset="0" style="stop-color:#58595B"/>
	<stop  offset="0.6512" style="stop-color:#939598"/>
	<stop  offset="1" style="stop-color:#808285"/>
</linearGradient>
<path fill="url(#SVGID_57_)" d="M-223.687,87.608c-20.916,0-37.931-17.016-37.931-37.931s17.016-37.931,37.931-37.931
	c20.915,0,37.931,17.016,37.931,37.931S-202.772,87.608-223.687,87.608z"/>
<linearGradient id="SVGID_58_" gradientUnits="userSpaceOnUse" x1="-258.2988" y1="49.6772" x2="-189.0752" y2="49.6772">
	<stop  offset="0" style="stop-color:#FFFFFF"/>
	<stop  offset="0.5415" style="stop-color:#808285"/>
	<stop  offset="1" style="stop-color:#FFFFFF"/>
</linearGradient>
<path fill="url(#SVGID_58_)" d="M-223.687,84.289c-19.085,0-34.612-15.527-34.612-34.612c0-19.085,15.526-34.612,34.612-34.612
	c19.085,0,34.612,15.526,34.612,34.612C-189.075,68.762-204.602,84.289-223.687,84.289z"/>
<path fill="#3E8ECC" d="M283.375-569.33c0,1.598-1.296,2.893-2.894,2.893h-72.634c-1.598,0-2.893-1.295-2.893-2.893v-25.729
	c0-1.598,1.295-2.893,2.893-2.893h72.634c1.598,0,2.894,1.295,2.894,2.893V-569.33z"/>
<path fill="#3E8ECC" d="M364.384-482.534c0,1.598-1.295,2.893-2.893,2.893h-72.634c-1.599,0-2.894-1.295-2.894-2.893v-25.729
	c0-1.598,1.295-2.893,2.894-2.893h72.634c1.598,0,2.893,1.295,2.893,2.893V-482.534z"/>
<path fill="#3E8ECC" d="M26.306-575.829c0,1.598-1.295,2.894-2.893,2.894h-72.634c-1.598,0-2.893-1.296-2.893-2.894v-25.729
	c0-1.598,1.295-2.893,2.893-2.893h72.634c1.598,0,2.893,1.295,2.893,2.893V-575.829z"/>
<path fill="#3E8ECC" d="M204.955-503.499c0,1.598-1.887,2.893-4.215,2.893H94.925c-2.328,0-4.215-1.295-4.215-2.893v-25.729
	c0-1.598,1.887-2.894,4.215-2.894h105.814c2.328,0,4.215,1.295,4.215,2.894V-503.499z"/>
<text transform="matrix(1 0 0 1 -44.0566 -579.3003)" fill="#FFFFFF" font-family="'MyriadPro-Regular'" font-size="25.6047">HTML</text>
<text transform="matrix(1 0 0 1 94.8164 -509.8643)" fill="#FFFFFF" font-family="'MyriadPro-Regular'" font-size="25.6047">Javascript</text>
<text transform="matrix(1 0 0 1 220.96 -573.5137)" fill="#FFFFFF" font-family="'MyriadPro-Regular'" font-size="25.6047">PHP</text>
<text transform="matrix(1 0 0 1 303.4277 -486.7188)" fill="#FFFFFF" font-family="'MyriadPro-Regular'" font-size="25.6047">CSS</text>
</svg>
