<?xml version="1.0" encoding="utf-8"?>
<!-- Generator: Adobe Illustrator 16.0.0, SVG Export Plug-In . SVG Version: 6.00 Build 0)  -->
<!DOCTYPE svg PUBLIC "-//W3C//DTD SVG 1.1//EN" "http://www.w3.org/Graphics/SVG/1.1/DTD/svg11.dtd">
<svg version="1.1" id="Layer_1" xmlns="http://www.w3.org/2000/svg" xmlns:xlink="http://www.w3.org/1999/xlink" x="0px" y="0px"
	 width="662.743px" height="268.443px" viewBox="0 0 662.743 268.443" enable-background="new 0 0 662.743 268.443"
	 xml:space="preserve">
<path d="M91.732,154.157L0,111.954V98.172L91.732,50.38v23.125L29.774,104.05l61.958,27.077V154.157z"/>
<path d="M140.624,173.717H111.62l31.798-149.933h29.003L140.624,173.717z"/>
<path d="M146.57,149.933h-29.003L149.364,0h29.003L146.57,149.933z"/>
<polygon points="209.075,173.717 180.072,173.717 202.908,65.99 231.911,65.99 "/>
<path fill="#1DA0E2" d="M209.021,33.311c0-5.588,1.525-9.811,4.576-12.67c3.05-2.856,7.371-4.289,12.96-4.289
	c4.688,0,8.254,0.998,10.696,2.987c2.441,1.992,3.662,4.852,3.662,8.577c0,5.139-1.415,9.298-4.24,12.478
	c-2.828,3.18-7.195,4.771-13.105,4.771C213.87,45.165,209.021,41.212,209.021,33.311z"/>
<path d="M284.079,175.645c-9.442,0-16.879-3.423-22.306-10.263c-5.43-6.841-8.143-16.429-8.143-28.763
	c0-12.72,2.313-24.845,6.938-36.375c4.625-11.529,10.695-20.459,18.211-26.787c7.516-6.326,15.77-9.491,24.764-9.491
	c6.229,0,11.611,1.349,16.141,4.047c4.527,2.697,8.045,6.617,10.552,11.754h0.77l5.494-13.777h22.354L335.92,173.717h-22.065
	l1.35-13.971h-0.387C306.209,170.344,295.963,175.645,284.079,175.645z M295.45,152.23c4.432,0,8.704-2.151,12.814-6.458
	c4.11-4.303,7.419-10.131,9.925-17.486c2.506-7.354,3.759-15.69,3.759-25.005c0-4.562-1.237-8.335-3.71-11.321
	c-2.476-2.988-5.733-4.481-9.78-4.481c-4.369,0-8.527,2.313-12.478,6.938s-7.099,10.729-9.442,18.309
	c-2.348,7.579-3.519,15.098-3.519,22.547c0,5.654,1.075,9.894,3.229,12.722C288.399,150.819,291.466,152.23,295.45,152.23z"/>
<path d="M453.417,63.966c14.068,0,22.482,7.323,25.248,21.969h0.576c4.367-7.064,9.523-12.493,15.465-16.283
	c5.943-3.79,12.287-5.686,19.031-5.686c8.736,0,15.4,2.73,19.994,8.19c4.592,5.46,6.889,13.072,6.889,22.837
	c0,4.883-0.738,10.663-2.215,17.344l-12.816,61.38h-29.006l13.299-62.922c1.027-4.367,1.543-8.19,1.543-11.467
	c0-7.9-3.148-11.853-9.441-11.853c-5.912,0-11.262,3.6-16.045,10.792c-4.785,7.196-8.592,17.409-11.416,30.643l-9.25,44.807h-29.006
	l13.201-62.922c1.025-4.367,1.541-8.19,1.541-11.467c0-7.9-3.145-11.853-9.441-11.853c-5.912,0-11.275,3.663-16.094,10.984
	c-4.816,7.324-8.607,17.537-11.369,30.642l-9.441,44.614h-29.006L398.495,65.99h22.162l-2.023,19.944h0.578
	C428.588,71.289,439.991,63.966,453.417,63.966z"/>
<path d="M571.01,131.127l61.959-27.077L571.01,73.505V50.38l91.732,47.792v13.781l-91.732,42.203V131.127z"/>
<text transform="matrix(1 0 0 1 153.5264 247.0442)" fill="#1DA0E2" font-family="'OpenSans-ExtraboldItalic'" font-size="83.6181" letter-spacing="3">developer</text>
<image display="none" overflow="visible" width="1280" height="1024" xlink:href="DEF2E3B6.jpg"  transform="matrix(1 0 0 1 -309 -376.9998)">
</image>
</svg>
