<?xml version="1.0" encoding="utf-8"?>
<!-- Generator: Adobe Illustrator 16.0.0, SVG Export Plug-In . SVG Version: 6.00 Build 0)  -->
<!DOCTYPE svg PUBLIC "-//W3C//DTD SVG 1.1//EN" "http://www.w3.org/Graphics/SVG/1.1/DTD/svg11.dtd">
<svg version="1.1" xmlns="http://www.w3.org/2000/svg" xmlns:xlink="http://www.w3.org/1999/xlink" x="0px" y="0px" width="2160px"
	 height="120px" viewBox="0 0 2160 120" enable-background="new 0 0 2160 120" xml:space="preserve">
<g id="Layer_1" display="none">
	<g transform="translate(-18.298844,-77.973964)">
		<path display="inline" fill="#B5002B" d="M103.688,102.907h2066.46v80.706c0,0-412.316-42.714-767.468-38.174
			c-287.565,3.675-705.074,29.179-705.074,29.179s-283.546,10.886-443.686-5.67C93.781,152.392,103.689,102.907,103.688,102.907
			L103.688,102.907z"/>
		<path display="inline" fill="#FF1A51" d="M-65.876,78.171h2318.609v117.866c0,0-554.835-83.476-945.722-59.063
			c-390.89,24.412-602.786,37.646-602.786,37.646s-421.859,24.18-601.538,0C-76.992,150.44-65.876,78.171-65.876,78.171z"/>
	</g>
	<g display="inline">
		<path fill="#FF1A51" d="M-300.818,79.189C582.27-98.697,1465.358,208.563,2348.446,30.675c0,57.637,0,115.274,0,172.911
			C1465.358,323.184,582.27-27.806-300.818,120.912"/>
	</g>
	<g display="inline">
		<path fill="#FFFFFF" d="M-300.818,81.189C582.27-96.697,1465.358,210.563,2348.446,32.675c0,57.637,0,115.274,0,172.911
			C1465.358,325.184,582.27-25.806-300.818,122.912"/>
	</g>
</g>
<g id="Layer_1_copy">
	<path fill="#FF1A51" d="M-300.818,79.189v2C582.27-96.697,1465.358,210.563,2348.446,32.675c0-0.667,0-1.333,0-2
		C1465.358,208.563,582.27-98.697-300.818,79.189z"/>
	<path fill="#1D71CC" d="M-325.346,177.995l0.2,1.99C538.693-56.114,1452.4,204.999,2319.146-2.126
		c-0.067-0.663-0.135-1.326-0.2-1.989C1452.2,203.009,538.494-58.104-325.346,177.995z"/>
	<path fill="#1D71CC" d="M-573.814,73.668l0.021,1.4C389.456-43.867,1358.072,187.12,2321.634,88.577
		c-0.009-0.468-0.016-0.934-0.022-1.4C1358.05,185.72,389.435-45.268-573.814,73.668z"/>
</g>
</svg>
